HIERARCHY
ROOT Hips
{
	OFFSET	0.00	0.00	0.00
	CHANNELS 6 Xposition Yposition Zposition Zrotation Xrotation Yrotation
	JOINT LeftUpLeg
	{
		OFFSET	 0.126116	-0.014019	-0.065224
		CHANNELS 3 Zrotation Xrotation Yrotation
		JOINT LeftLeg
		{
			OFFSET	 0.000000	 0.000000	 0.569914
			CHANNELS 3 Zrotation Xrotation Yrotation
			JOINT LeftFoot
			{
				OFFSET	 0.000000	 0.000000	 0.544423
				CHANNELS 3 Zrotation Xrotation Yrotation
				JOINT LeftToeBase
				{
					OFFSET	 0.000000	 0.000000	 0.207117
					CHANNELS 3 Zrotation Xrotation Yrotation
					End Site
					{
						OFFSET	 0.000000	 0.000000	 0.207117
					}
				}
			}
		}
	}
	JOINT RightUpLeg
	{
		OFFSET	-0.124023	-0.008373	-0.065224
		CHANNELS 3 Zrotation Xrotation Yrotation
		JOINT RightLeg
		{
			OFFSET	 0.000000	 0.000000	 0.570047
			CHANNELS 3 Zrotation Xrotation Yrotation
			JOINT RightFoot
			{
				OFFSET	 0.000000	 0.000000	 0.544354
				CHANNELS 3 Zrotation Xrotation Yrotation
				JOINT RightToeBase
				{
					OFFSET	 0.000000	 0.000000	 0.207540
					CHANNELS 3 Zrotation Xrotation Yrotation
					End Site
					{
						OFFSET	 0.000000	 0.000000	 0.207540
					}
				}
			}
		}
	}
	JOINT Spine
	{
		OFFSET	 0.000184	-0.007763	 0.117403
		CHANNELS 3 Zrotation Xrotation Yrotation
		JOINT Spine1
		{
			OFFSET	 0.000000	 0.000000	 0.137269
			CHANNELS 3 Zrotation Xrotation Yrotation
			JOINT Spine2
			{
				OFFSET	 0.000000	 0.000000	 0.156879
				CHANNELS 3 Zrotation Xrotation Yrotation
				JOINT LeftShoulder
				{
					OFFSET	 0.080501	-0.002496	 0.160144
					CHANNELS 3 Zrotation Xrotation Yrotation
					JOINT LeftArm
					{
						OFFSET	 0.000000	 0.000000	 0.164363
						CHANNELS 3 Zrotation Xrotation Yrotation
						JOINT LeftForeArm
						{
							OFFSET	 0.000000	 0.000000	 0.364576
							CHANNELS 3 Zrotation Xrotation Yrotation
							JOINT LeftHand
							{
								OFFSET	 0.000000	 0.000000	 0.360812
								CHANNELS 3 Zrotation Xrotation Yrotation
								JOINT LeftHandIndex1
								{
									OFFSET	 0.000000	 0.000000	 0.086006
									CHANNELS 3 Zrotation Xrotation Yrotation
									JOINT LeftHandIndex2
									{
										OFFSET	 0.000000	 0.000000	 0.047236
										CHANNELS 3 Zrotation Xrotation Yrotation
										JOINT LeftHandIndex3
										{
											OFFSET	-0.004284	-0.000551	 0.038166
											CHANNELS 3 Zrotation Xrotation Yrotation
											End Site
											{
												OFFSET	-0.004284	-0.000551	 0.038166
											}
										}
									}
								}
							}
						}
					}
				}
				JOINT Neck
				{
					OFFSET	 0.000000	 0.000000	 0.176489
					CHANNELS 3 Zrotation Xrotation Yrotation
					JOINT Head
					{
						OFFSET	 0.000000	-0.001747	 0.077940
						CHANNELS 3 Zrotation Xrotation Yrotation
						End Site
						{
							OFFSET	 0.000000	-0.001747	 0.077940
						}
					}
				}
				JOINT RightShoulder
				{
					OFFSET	-0.080363	 0.000306	 0.159706
					CHANNELS 3 Zrotation Xrotation Yrotation
					JOINT RightArm
					{
						OFFSET	 0.000000	 0.000000	 0.164196
						CHANNELS 3 Zrotation Xrotation Yrotation
						JOINT RightForeArm
						{
							OFFSET	 0.000000	 0.000000	 0.365611
							CHANNELS 3 Zrotation Xrotation Yrotation
							JOINT RightHand
							{
								OFFSET	 0.000000	 0.000000	 0.360648
								CHANNELS 3 Zrotation Xrotation Yrotation
								JOINT RightHandIndex1
								{
									OFFSET	 0.000000	 0.000000	 0.069977
									CHANNELS 3 Zrotation Xrotation Yrotation
									JOINT RightHandIndex2
									{
										OFFSET	 0.000000	 0.000000	 0.052305
										CHANNELS 3 Zrotation Xrotation Yrotation
										JOINT RightHandIndex3
										{
											OFFSET	 0.009002	-0.000782	 0.042196
											CHANNELS 3 Zrotation Xrotation Yrotation
											End Site
											{
												OFFSET	 0.009002	-0.000782	 0.042196
											}
										}
									}
								}
							}
						}
					}
				}
			}
		}
	}
}
MOTION
Frames:    4
Frame Time: 0.03333334
 0.000143	 0.043657	 1.274911	-0.066822	 2.823871	 0.606343	 1.277189	-6.553406	 178.312700	 2.220700	-14.113950	 0.643522	-0.048237	 71.615010	-0.055757	-2.385833	 28.452750	 0.000004	 6.198855	-5.912777	-178.732500	-0.769233	-12.240150	 0.929704	 5.583681	 70.438900	 0.709374	 2.384659	 28.388700	-0.000001	-0.439803	 7.374372	 0.327834	-0.151786	-6.784901	-0.007031	 0.892565	 10.167070	 0.184200	-91.083610	 69.206610	-177.631700	-6.958456	 1.161894	-14.015570	 25.720670	-2.720126	-9.901003	-7.293888	-7.542899	-4.191719	-2.027600	 6.559038	 9.033609	-5.188889	 0.308190	 3.541030	-5.234859	 0.342567	 0.430617	 4.550827	 19.305560	-7.168714	-4.196455	-14.016790	 1.924825	 88.897460	 67.884000	 177.131900	 9.935906	 6.408433	 8.794665	-26.932560	-7.776148	 21.145310	 4.228491	-7.353970	 5.800625	 1.803333	 3.979147	-15.098590	 4.898592	 3.004813	-9.310344	 5.224449	 0.395017	 2.014677
-0.000355	 0.046738	 1.274215	 0.003952	 3.767780	 0.661937	 0.945023	-8.103441	 178.221000	 2.103424	-14.894990	 0.669139	 0.127426	 71.836590	-0.198844	-2.385833	 28.452750	 0.000004	 6.215189	-7.374771	-178.715400	-0.746482	-12.872890	 0.982060	 5.618329	 70.564480	 0.663494	 2.384659	 28.388700	-0.000001	-0.406960	 7.992271	 0.386331	-0.190783	-9.505411	-0.164678	 0.884732	 13.133900	 0.241675	-90.929920	 68.155940	-177.316400	-6.319646	 0.153234	-14.305500	 25.017310	-3.231978	-12.292040	-5.610910	-8.950436	-4.692317	-2.027600	 6.559038	 9.033609	-5.188889	 0.308190	 3.541030	-5.234859	 0.342567	 0.430617	 4.714667	 22.329280	-8.079070	-3.891408	-16.206700	 1.878362	 88.637820	 66.087870	 176.676400	 9.568569	 5.149746	 10.171100	-26.823760	-8.007508	 21.833360	 2.290692	-7.989248	 5.310987	 1.803333	 3.979147	-15.098590	 4.898592	 3.004813	-9.310344	 5.224449	 0.395017	 2.014677
-0.001025	 0.051340	 1.273202	 0.109879	 5.042155	 0.752994	 0.730812	-10.190550	 178.097400	 2.247591	-15.865060	 0.715223	 0.253111	 72.127260	-0.343544	-2.385833	 28.452760	 0.000004	 6.171370	-9.314424	-178.702500	-0.858612	-13.603560	 1.010254	 5.769841	 70.662630	 0.634157	 2.384659	 28.388700	-0.000001	-0.276182	 8.539237	 0.414297	-0.235103	-12.517900	-0.315824	 0.732701	 16.183360	 0.308881	-90.825520	 66.975590	-177.199600	-5.594070	-0.401014	-14.264950	 23.771650	-3.682461	-15.243730	-4.317098	-10.581120	-5.552809	-2.027600	 6.559038	 9.033609	-5.188889	 0.308190	 3.541030	-5.234859	 0.342567	 0.430617	 4.646628	 25.030790	-8.749749	-3.539976	-18.295740	 1.790475	 88.416940	 64.009550	 176.422900	 8.869664	 4.161114	 11.288060	-26.354490	-8.181169	 22.799290	 0.227582	-8.686132	 5.046736	 1.803333	 3.979147	-15.098590	 4.898592	 3.004813	-9.310344	 5.224449	 0.395017	 2.014677
-0.001722	 0.057345	 1.272241	 0.236965	 6.573789	 0.881737	 0.275571	-12.558400	 177.876000	 2.186505	-16.696890	 0.748348	 0.380042	 72.282590	-0.465770	-2.385832	 28.452790	-0.000001	 6.032587	-11.472800	-178.688800	-1.269689	-14.065760	 0.942495	 6.179393	 70.593440	 0.629156	 2.384659	 28.388700	-0.000001	-0.087951	 8.856440	 0.374045	-0.289330	-15.464280	-0.390079	 0.448373	 18.900240	 0.347840	-90.850810	 65.505490	-177.480900	-4.550833	-0.634565	-13.842540	 21.686820	-3.709138	-18.129430	-3.976729	-12.001010	-6.772372	-2.027600	 6.559038	 9.033609	-5.188889	 0.308190	 3.541030	-5.234859	 0.342567	 0.430617	 4.251280	 26.582250	-8.835583	-3.305847	-19.622370	 1.556077	 88.390820	 61.825320	 176.662400	 7.445611	 3.438796	 11.826300	-25.385800	-8.109869	 23.803510	-1.668100	-9.170286	 5.253305	 1.803333	 3.979147	-15.098590	 4.898592	 3.004813	-9.310344	 5.224449	 0.395017	 2.014677
